<svg width="985" height="188" viewBox="0 0 985 188" fill="none" xmlns="http://www.w3.org/2000/svg">
<path d="M4.25009 5.27999C4.31409 4.768 4.50609 4.416 4.82609 4.224C5.21009 3.968 5.56209 3.84 5.88209 3.84C10.2341 3.84 14.2981 3.712 18.0741 3.456C21.9141 3.136 24.9221 2.976 27.0981 2.976C32.5381 2.976 37.0821 3.52 40.7301 4.608C44.4421 5.696 47.4181 7.39199 49.6581 9.696C51.9621 12 53.5941 14.976 54.5541 18.624C55.5141 22.272 55.9941 26.656 55.9941 31.776C55.9941 36.96 55.4501 42.048 54.3621 47.04C53.3381 51.968 51.5141 56.352 48.8901 60.192C46.2661 64.032 42.7141 67.136 38.2341 69.504C33.8181 71.808 28.2181 72.96 21.4341 72.96C18.2981 72.96 15.4181 72.896 12.7941 72.768C10.2341 72.64 8.02609 72.256 6.17009 71.616C4.31409 70.976 2.87409 70.016 1.85009 68.736C0.826091 67.456 0.314091 65.696 0.314091 63.456C0.314091 62.624 0.346091 61.376 0.410091 59.712C0.538091 58.048 0.666091 56.064 0.794091 53.76C0.986091 51.456 1.17809 48.928 1.37009 46.176C1.62609 43.36 1.88209 40.416 2.13809 37.344C2.65009 31.008 3.03409 25.952 3.29009 22.176C3.61009 18.4 3.80209 15.456 3.86609 13.344C3.99409 11.168 4.05809 9.536 4.05809 8.44799C4.12209 7.36 4.18609 6.304 4.25009 5.27999ZM22.1061 57.792C25.6901 57.792 28.5381 57.024 30.6501 55.488C32.8261 53.952 34.4901 52 35.6421 49.632C36.7941 47.264 37.5621 44.672 37.9461 41.856C38.3301 39.04 38.5221 36.384 38.5221 33.888C38.5221 31.2 38.3301 28.864 37.9461 26.88C37.6261 24.832 37.0181 23.136 36.1221 21.792C35.2901 20.448 34.1061 19.456 32.5701 18.816C31.0341 18.112 29.1141 17.76 26.8101 17.76C26.1061 17.76 25.2101 17.792 24.1221 17.856C23.0341 17.92 21.7221 18.016 20.1861 18.144C20.0581 20.512 19.8981 23.328 19.7061 26.592C19.5141 29.792 19.2901 33.184 19.0341 36.768C18.8421 40.288 18.6181 43.872 18.3621 47.52C18.1061 51.104 17.8501 54.432 17.5941 57.504C18.5541 57.632 19.4181 57.728 20.1861 57.792C20.9541 57.792 21.5941 57.792 22.1061 57.792ZM96.3156 72.96C91.8996 72.96 88.2196 72.352 85.2756 71.136C82.3956 69.856 80.0916 68.128 78.3636 65.952C76.6356 63.776 75.4196 61.248 74.7156 58.368C74.0116 55.424 73.6596 52.288 73.6596 48.96C73.6596 45.12 74.1076 41.376 75.0036 37.728C75.9636 34.016 77.5636 30.72 79.8036 27.84C82.0436 24.96 84.9876 22.656 88.6356 20.928C92.3476 19.136 96.9556 18.24 102.46 18.24C110.524 18.24 116.284 20.224 119.74 24.192C123.26 28.096 125.02 33.6 125.02 40.704C125.02 42.688 124.86 44.896 124.54 47.328C124.284 49.696 123.74 52.064 122.908 54.432C122.14 56.8 121.052 59.104 119.644 61.344C118.3 63.584 116.572 65.568 114.46 67.296C112.348 69.024 109.788 70.4 106.78 71.424C103.836 72.448 100.348 72.96 96.3156 72.96ZM100.828 31.008C98.3956 31.008 96.4436 31.648 94.9716 32.928C93.5636 34.144 92.4756 35.648 91.7076 37.44C91.0036 39.168 90.5236 41.024 90.2676 43.008C90.0756 44.928 89.9796 46.56 89.9796 47.904C89.9796 52.128 90.6516 55.232 91.9956 57.216C93.3396 59.2 95.2596 60.192 97.7556 60.192C99.9956 60.192 101.82 59.488 103.228 58.08C104.7 56.672 105.82 54.976 106.588 52.992C107.42 51.008 107.964 48.928 108.22 46.752C108.54 44.576 108.7 42.752 108.7 41.28C108.7 38.08 108.092 35.584 106.876 33.792C105.724 31.936 103.708 31.008 100.828 31.008ZM194.506 61.728C195.338 57.056 196.042 52.992 196.618 49.536C197.258 46.016 197.77 42.976 198.154 40.416C198.602 37.856 198.954 35.648 199.21 33.792C199.53 31.936 199.786 30.304 199.978 28.896C200.234 27.424 200.426 26.144 200.554 25.056C200.746 23.904 200.938 22.72 201.13 21.504C201.258 20.8 201.578 20.256 202.09 19.872C202.666 19.488 203.722 19.296 205.258 19.296C206.09 19.296 207.242 19.36 208.714 19.488C210.25 19.552 211.754 19.776 213.226 20.16C214.698 20.544 215.946 21.152 216.97 21.984C218.058 22.752 218.602 23.84 218.602 25.248C218.602 26.272 218.314 27.808 217.738 29.856C217.162 31.84 216.426 34.144 215.53 36.768C214.634 39.392 213.61 42.208 212.458 45.216C211.306 48.16 210.122 51.104 208.906 54.048C207.754 56.928 206.634 59.68 205.546 62.304C204.458 64.928 203.53 67.2 202.762 69.12C202.25 70.272 201.738 71.04 201.226 71.424C200.778 71.808 199.946 72 198.73 72H193.066C191.274 72 189.802 71.776 188.65 71.328C187.498 70.88 186.57 70.272 185.866 69.504C185.162 68.736 184.618 67.872 184.234 66.912C183.85 65.888 183.562 64.8 183.37 63.648C182.73 60.384 182.058 56 181.354 50.496C180.65 44.992 180.01 38.496 179.434 31.008C179.114 32.416 178.73 34.304 178.282 36.672C177.898 39.04 177.45 41.6 176.938 44.352C176.49 47.104 176.01 49.92 175.498 52.8C174.986 55.68 174.506 58.368 174.058 60.864C173.61 63.296 173.194 65.408 172.81 67.2C172.426 68.928 172.106 70.048 171.85 70.56C171.53 71.2 171.114 71.616 170.602 71.808C170.154 71.936 169.482 72 168.586 72H161.866C160.202 72 158.762 71.776 157.546 71.328C156.394 70.816 155.37 70.176 154.474 69.408C153.642 68.64 152.938 67.776 152.362 66.816C151.85 65.792 151.466 64.736 151.21 63.648C147.69 49.952 145.034 39.616 143.242 32.64C141.514 25.664 140.65 21.92 140.65 21.408C140.65 20.832 140.938 20.32 141.514 19.872C142.09 19.424 142.826 19.2 143.722 19.2C146.474 19.2 148.842 19.328 150.826 19.584C152.81 19.776 154.442 20.16 155.722 20.736C157.066 21.312 158.09 22.112 158.794 23.136C159.498 24.16 159.946 25.504 160.138 27.168C160.202 28.064 160.33 29.888 160.522 32.64C160.714 35.392 160.906 38.528 161.098 42.048C161.354 45.504 161.578 49.024 161.77 52.608C162.026 56.192 162.25 59.232 162.442 61.728C163.21 57.76 163.818 54.592 164.266 52.224C164.778 49.856 165.194 47.872 165.514 46.272C165.834 44.672 166.09 43.264 166.282 42.048C166.538 40.832 166.826 39.392 167.146 37.728C167.466 36.064 167.818 33.984 168.202 31.488C168.65 28.992 169.258 25.664 170.026 21.504C170.282 19.968 171.978 19.2 175.114 19.2C177.098 19.2 178.954 19.264 180.682 19.392C182.41 19.52 183.946 19.84 185.29 20.352C186.634 20.8 187.786 21.504 188.746 22.464C189.706 23.36 190.378 24.608 190.762 26.208C190.89 26.656 190.986 27.104 191.05 27.552C191.178 28 191.306 28.64 191.434 29.472C191.562 30.304 191.69 31.456 191.818 32.928C192.01 34.4 192.202 36.384 192.394 38.88C192.65 41.376 192.938 44.48 193.258 48.192C193.578 51.904 193.994 56.416 194.506 61.728ZM267.838 63.552C267.838 62.144 267.934 60.32 268.126 58.08C268.382 55.776 268.606 53.376 268.798 50.88C269.054 48.32 269.278 45.856 269.47 43.488C269.726 41.12 269.854 39.136 269.854 37.536C269.854 35.872 269.438 34.4 268.606 33.12C267.838 31.776 266.302 31.104 263.998 31.104C261.758 31.104 259.902 31.648 258.43 32.736C256.958 33.824 255.71 35.808 254.686 38.688C253.726 41.568 252.926 45.536 252.286 50.592C251.646 55.648 251.038 62.144 250.462 70.08C250.398 70.848 250.238 71.36 249.982 71.616C249.726 71.872 249.182 72 248.35 72H244.894C242.91 72 241.278 71.808 239.998 71.424C238.782 70.976 237.79 70.368 237.022 69.6C236.318 68.832 235.806 67.904 235.486 66.816C235.23 65.664 235.102 64.352 235.102 62.88C235.102 61.92 235.134 60.576 235.198 58.848C235.326 57.056 235.518 54.624 235.774 51.552C236.03 48.416 236.318 44.48 236.638 39.744C237.022 34.944 237.47 29.024 237.982 21.984C238.046 20.576 238.206 19.744 238.462 19.488C238.654 19.296 239.166 19.2 239.998 19.2H243.742C245.662 19.2 247.23 19.424 248.446 19.872C249.726 20.32 250.75 20.928 251.518 21.696C252.286 22.4 252.83 23.264 253.15 24.288C253.47 25.248 253.662 26.24 253.726 27.264C255.71 23.872 257.982 21.536 260.542 20.256C263.102 18.912 266.302 18.24 270.142 18.24C272.83 18.24 275.166 18.528 277.15 19.104C279.134 19.68 280.766 20.672 282.046 22.08C283.39 23.424 284.382 25.216 285.022 27.456C285.662 29.632 285.982 32.352 285.982 35.616C285.982 36.64 285.918 38.112 285.79 40.032C285.662 41.952 285.502 44.064 285.31 46.368C285.118 48.608 284.894 50.976 284.638 53.472C284.446 55.904 284.254 58.176 284.062 60.288C283.87 62.4 283.71 64.256 283.582 65.856C283.454 67.456 283.39 68.512 283.39 69.024C283.39 70.432 283.23 71.296 282.91 71.616C282.59 71.872 281.886 72 280.798 72H277.726C275.678 72 274.014 71.808 272.734 71.424C271.454 71.04 270.462 70.496 269.758 69.792C269.054 69.088 268.542 68.224 268.222 67.2C267.966 66.112 267.838 64.896 267.838 63.552ZM317.195 72.864C313.227 72.864 310.379 71.808 308.651 69.696C306.923 67.584 306.059 64.096 306.059 59.232C306.059 58.464 306.091 57.504 306.155 56.352C306.283 55.2 306.411 53.728 306.539 51.936C306.731 50.08 306.955 47.808 307.211 45.12C307.467 42.432 307.723 39.168 307.979 35.328C308.299 31.488 308.619 26.976 308.939 21.792C309.323 16.608 309.707 10.592 310.091 3.744C310.155 2.336 310.315 1.504 310.571 1.248C310.763 1.056 311.275 0.959999 312.107 0.959999H315.851C317.771 0.959999 319.371 1.184 320.651 1.632C321.931 2.08 322.955 2.688 323.723 3.456C324.491 4.224 325.035 5.12 325.355 6.144C325.675 7.104 325.835 8.128 325.835 9.216C325.835 10.496 325.739 12.352 325.547 14.784C325.419 17.152 325.227 19.84 324.971 22.848C324.715 25.856 324.459 28.992 324.203 32.256C323.947 35.52 323.691 38.656 323.435 41.664C323.179 44.608 322.955 47.264 322.763 49.632C322.635 52 322.571 53.792 322.571 55.008C322.571 56.672 322.859 57.856 323.435 58.56C324.075 59.264 324.747 59.776 325.451 60.096C326.155 60.352 326.795 60.544 327.371 60.672C328.011 60.736 328.331 60.928 328.331 61.248C328.331 62.656 328.171 64.064 327.851 65.472C327.531 66.816 326.955 68.064 326.123 69.216C325.291 70.304 324.139 71.2 322.667 71.904C321.259 72.544 319.435 72.864 317.195 72.864ZM368.052 72.96C363.636 72.96 359.956 72.352 357.012 71.136C354.132 69.856 351.828 68.128 350.1 65.952C348.372 63.776 347.156 61.248 346.452 58.368C345.748 55.424 345.396 52.288 345.396 48.96C345.396 45.12 345.844 41.376 346.74 37.728C347.7 34.016 349.3 30.72 351.54 27.84C353.78 24.96 356.724 22.656 360.372 20.928C364.084 19.136 368.692 18.24 374.196 18.24C382.26 18.24 388.02 20.224 391.476 24.192C394.996 28.096 396.756 33.6 396.756 40.704C396.756 42.688 396.596 44.896 396.276 47.328C396.02 49.696 395.476 52.064 394.644 54.432C393.876 56.8 392.788 59.104 391.38 61.344C390.036 63.584 388.308 65.568 386.196 67.296C384.084 69.024 381.524 70.4 378.516 71.424C375.572 72.448 372.084 72.96 368.052 72.96ZM372.564 31.008C370.132 31.008 368.18 31.648 366.708 32.928C365.3 34.144 364.212 35.648 363.444 37.44C362.74 39.168 362.26 41.024 362.004 43.008C361.812 44.928 361.716 46.56 361.716 47.904C361.716 52.128 362.388 55.232 363.732 57.216C365.076 59.2 366.996 60.192 369.492 60.192C371.732 60.192 373.556 59.488 374.964 58.08C376.436 56.672 377.556 54.976 378.324 52.992C379.156 51.008 379.7 48.928 379.956 46.752C380.276 44.576 380.436 42.752 380.436 41.28C380.436 38.08 379.828 35.584 378.612 33.792C377.46 31.936 375.444 31.008 372.564 31.008ZM412.563 60.192C412.563 54.432 415.155 49.92 420.339 46.656C425.523 43.392 433.171 41.632 443.283 41.376C443.347 40.672 443.379 40.096 443.379 39.648C443.443 39.136 443.475 38.528 443.475 37.824C443.475 35.776 443.091 34.144 442.323 32.928C441.555 31.712 439.955 31.104 437.523 31.104C436.179 31.104 435.091 31.296 434.259 31.68C433.427 32.064 432.755 32.608 432.243 33.312C431.731 33.952 431.315 34.752 430.995 35.712C430.675 36.672 430.387 37.728 430.131 38.88C430.003 39.456 429.715 39.84 429.267 40.032C428.819 40.16 428.115 40.224 427.155 40.224C420.627 40.224 417.363 37.76 417.363 32.832C417.363 30.848 417.811 28.96 418.707 27.168C419.667 25.376 421.043 23.84 422.835 22.56C424.691 21.216 426.995 20.16 429.747 19.392C432.499 18.624 435.699 18.24 439.347 18.24C446.451 18.24 451.603 19.712 454.803 22.656C458.003 25.6 459.603 29.76 459.603 35.136C459.603 35.84 459.507 37.12 459.315 38.976C459.187 40.768 458.995 42.688 458.739 44.736C458.547 46.72 458.355 48.608 458.163 50.4C458.035 52.192 457.971 53.44 457.971 54.144C457.971 55.744 458.259 56.896 458.835 57.6C459.411 58.24 460.051 58.688 460.755 58.944C461.523 59.2 462.195 59.392 462.771 59.52C463.347 59.648 463.635 59.968 463.635 60.48C463.635 61.888 463.443 63.328 463.059 64.8C462.675 66.272 462.035 67.616 461.139 68.832C460.307 70.048 459.123 71.04 457.587 71.808C456.115 72.576 454.291 72.96 452.115 72.96C449.043 72.96 446.739 72.224 445.203 70.752C443.667 69.28 442.643 67.232 442.131 64.608C440.595 66.848 438.579 68.8 436.083 70.464C433.651 72.128 430.451 72.96 426.483 72.96C424.563 72.96 422.739 72.736 421.011 72.288C419.347 71.84 417.875 71.104 416.595 70.08C415.379 69.056 414.387 67.744 413.619 66.144C412.915 64.48 412.563 62.496 412.563 60.192ZM442.419 49.248C440.755 49.248 439.123 49.376 437.523 49.632C435.923 49.888 434.483 50.304 433.203 50.88C431.987 51.392 430.995 52.096 430.227 52.992C429.459 53.888 429.075 54.976 429.075 56.256C429.075 57.728 429.523 58.752 430.419 59.328C431.379 59.904 432.403 60.192 433.491 60.192C434.515 60.192 435.539 59.968 436.563 59.52C437.587 59.072 438.483 58.4 439.251 57.504C440.083 56.544 440.787 55.392 441.363 54.048C441.939 52.704 442.291 51.104 442.419 49.248ZM498.625 72.96C496.129 72.96 493.729 72.512 491.425 71.616C489.185 70.72 487.201 69.312 485.473 67.392C483.809 65.472 482.465 63.04 481.441 60.096C480.481 57.152 480.001 53.6 480.001 49.44C480.001 47.584 480.129 45.536 480.385 43.296C480.641 40.992 481.089 38.688 481.729 36.384C482.369 34.08 483.265 31.84 484.417 29.664C485.569 27.488 487.009 25.568 488.737 23.904C490.529 22.176 492.641 20.8 495.073 19.776C497.569 18.752 500.481 18.24 503.809 18.24C507.009 18.24 509.569 18.816 511.489 19.968C513.473 21.056 514.721 22.976 515.233 25.728C515.361 23.232 515.489 21.056 515.617 19.2C515.745 17.344 515.841 15.616 515.905 14.016C516.033 12.416 516.161 10.816 516.289 9.216C516.417 7.616 516.545 5.792 516.673 3.744C516.737 2.336 516.897 1.504 517.153 1.248C517.281 1.12 517.441 1.056 517.633 1.056C517.825 0.991999 518.177 0.959999 518.689 0.959999H522.433C524.353 0.959999 525.953 1.184 527.233 1.632C528.513 2.08 529.537 2.688 530.305 3.456C531.073 4.224 531.617 5.12 531.937 6.144C532.257 7.104 532.417 8.128 532.417 9.216C532.417 9.216 532.353 10.016 532.225 11.616C532.097 13.216 531.937 15.36 531.745 18.048C531.553 20.672 531.329 23.68 531.073 27.072C530.817 30.464 530.561 33.984 530.305 37.632C530.049 41.216 529.793 44.8 529.537 48.384C529.281 51.904 529.025 55.168 528.769 58.176C528.513 61.12 528.289 63.68 528.097 65.856C527.969 67.968 527.873 69.376 527.809 70.08C527.681 70.848 527.521 71.36 527.329 71.616C527.137 71.872 526.593 72 525.697 72H522.241C520.897 72 519.617 71.904 518.401 71.712C517.249 71.456 516.225 71.072 515.329 70.56C514.497 69.984 513.825 69.248 513.313 68.352C512.865 67.392 512.641 66.176 512.641 64.704C511.489 67.136 509.729 69.12 507.361 70.656C505.057 72.192 502.145 72.96 498.625 72.96ZM506.977 31.008C503.713 31.008 501.281 32.448 499.681 35.328C498.145 38.144 497.377 41.952 497.377 46.752C497.377 48.416 497.473 50.048 497.665 51.648C497.921 53.248 498.337 54.688 498.913 55.968C499.489 57.248 500.257 58.272 501.217 59.04C502.241 59.808 503.521 60.192 505.057 60.192C507.809 60.192 510.113 58.848 511.969 56.16C513.825 53.472 514.753 49.248 514.753 43.488C514.753 41.888 514.657 40.352 514.465 38.88C514.273 37.344 513.889 36 513.313 34.848C512.737 33.696 511.937 32.768 510.913 32.064C509.889 31.36 508.577 31.008 506.977 31.008ZM603.768 32.16C603.576 34.592 603.352 36.992 603.096 39.36C602.904 41.728 602.712 43.968 602.52 46.08C602.328 48.192 602.168 50.08 602.04 51.744C601.976 53.408 601.944 54.688 601.944 55.584C601.944 57.248 602.136 58.368 602.52 58.944C602.904 59.456 603.544 59.712 604.44 59.712C605.144 59.712 605.752 59.584 606.264 59.328C606.776 59.072 607.256 58.784 607.704 58.464C608.152 58.144 608.536 57.856 608.856 57.6C609.24 57.344 609.656 57.216 610.104 57.216C610.552 57.216 610.968 57.472 611.352 57.984C611.736 58.496 611.928 59.68 611.928 61.536C611.928 65.056 610.968 67.84 609.048 69.888C607.128 71.936 603.832 72.96 599.16 72.96C594.552 72.96 591.128 71.904 588.888 69.792C586.712 67.616 585.624 64.32 585.624 59.904C585.624 58.944 585.656 57.824 585.72 56.544C585.848 55.2 586.008 53.472 586.2 51.36C586.392 49.248 586.616 46.656 586.872 43.584C587.192 40.512 587.512 36.704 587.832 32.16H582.744C582.232 32.16 581.912 32.064 581.784 31.872C581.72 31.616 581.688 31.264 581.688 30.816L581.976 25.92C582.04 25.088 582.136 24.288 582.264 23.52C582.456 22.688 582.776 21.952 583.224 21.312C583.736 20.672 584.44 20.16 585.336 19.776C586.232 19.392 587.416 19.2 588.888 19.2C589.336 18.048 589.848 16.672 590.424 15.072C591 13.472 591.576 11.936 592.152 10.464C592.728 8.928 593.272 7.648 593.784 6.62399C594.36 5.6 594.872 5.088 595.32 5.088H598.104C600.792 5.088 602.648 5.92 603.672 7.584C604.696 9.248 605.208 11.232 605.208 13.536C605.208 14.816 605.112 16.704 604.92 19.2H615C616.024 19.2 616.536 19.648 616.536 20.544L616.152 25.728C616.024 27.648 615.48 29.216 614.52 30.432C613.624 31.584 611.736 32.16 608.856 32.16H603.768ZM664.864 60.096C665.056 57.984 665.248 55.776 665.44 53.472C665.696 51.168 665.888 48.96 666.016 46.848C666.208 44.736 666.368 42.848 666.496 41.184C666.624 39.52 666.688 38.304 666.688 37.536C666.688 35.872 666.272 34.4 665.44 33.12C664.672 31.776 663.136 31.104 660.832 31.104C657.76 31.104 655.264 32.544 653.344 35.424C651.488 38.304 650.4 42.144 650.08 46.944C649.952 48.288 649.792 50.176 649.6 52.608C649.408 54.976 649.216 57.408 649.024 59.904C648.832 62.336 648.64 64.544 648.448 66.528C648.32 68.448 648.256 69.632 648.256 70.08C648.256 70.848 648.096 71.36 647.776 71.616C647.52 71.872 646.976 72 646.144 72H642.688C640.704 72 639.072 71.808 637.792 71.424C636.576 70.976 635.584 70.368 634.816 69.6C634.112 68.832 633.6 67.904 633.28 66.816C633.024 65.664 632.896 64.352 632.896 62.88C632.896 61.472 632.992 59.52 633.184 57.024C633.44 54.464 633.76 50.976 634.144 46.56C634.528 42.08 634.976 36.384 635.488 29.472C636 22.56 636.544 13.984 637.12 3.744C637.184 2.336 637.344 1.504 637.6 1.248C637.792 1.056 638.304 0.959999 639.136 0.959999H642.88C644.8 0.959999 646.4 1.184 647.68 1.632C648.96 2.08 649.984 2.688 650.752 3.456C651.52 4.224 652.064 5.12 652.384 6.144C652.704 7.104 652.864 8.128 652.864 9.216C652.864 10.368 652.736 12.512 652.48 15.648C652.288 18.784 652.032 22.464 651.712 26.688C653.632 23.488 655.744 21.28 658.048 20.064C660.416 18.848 663.392 18.24 666.976 18.24C669.664 18.24 672 18.528 673.984 19.104C675.968 19.68 677.6 20.672 678.88 22.08C680.224 23.424 681.216 25.216 681.856 27.456C682.496 29.632 682.816 32.352 682.816 35.616C682.816 36.64 682.72 38.4 682.528 40.896C682.336 43.392 682.08 46.24 681.76 49.44C681.504 52.64 681.216 56 680.896 59.52C680.64 62.976 680.416 66.144 680.224 69.024C680.16 69.728 680.096 70.272 680.032 70.656C679.968 71.04 679.84 71.328 679.648 71.52C679.52 71.712 679.296 71.84 678.976 71.904C678.656 71.968 678.208 72 677.632 72H674.56C672.512 72 670.848 71.808 669.568 71.424C668.288 71.04 667.296 70.496 666.592 69.792C665.888 69.088 665.376 68.224 665.056 67.2C664.8 66.112 664.672 64.896 664.672 63.552C664.672 62.912 664.672 62.304 664.672 61.728C664.736 61.152 664.8 60.608 664.864 60.096ZM725.094 72.96C722.278 72.96 719.462 72.608 716.646 71.904C713.894 71.2 711.398 69.984 709.158 68.256C706.982 66.528 705.19 64.224 703.782 61.344C702.374 58.464 701.67 54.848 701.67 50.496C701.67 48.896 701.798 46.976 702.054 44.736C702.31 42.496 702.79 40.192 703.494 37.824C704.262 35.456 705.286 33.12 706.566 30.816C707.91 28.448 709.638 26.336 711.75 24.48C713.862 22.624 716.422 21.12 719.43 19.968C722.438 18.816 726.022 18.24 730.182 18.24C733.51 18.24 736.326 18.624 738.63 19.392C740.934 20.16 742.79 21.216 744.198 22.56C745.606 23.84 746.63 25.344 747.27 27.072C747.91 28.8 748.23 30.656 748.23 32.64C748.23 35.584 747.622 38.08 746.406 40.128C745.254 42.176 743.718 43.904 741.798 45.312C739.942 46.656 737.862 47.712 735.558 48.48C733.254 49.248 730.982 49.856 728.742 50.304C726.502 50.688 724.422 50.944 722.502 51.072C720.646 51.136 719.206 51.168 718.182 51.168C718.182 52.384 718.342 53.6 718.662 54.816C719.046 55.968 719.59 56.992 720.294 57.888C720.998 58.784 721.926 59.52 723.078 60.096C724.23 60.672 725.638 60.96 727.302 60.96C728.966 60.96 730.246 60.704 731.142 60.192C732.102 59.616 732.87 59.008 733.446 58.368C734.022 57.664 734.502 57.056 734.886 56.544C735.334 55.968 735.91 55.68 736.614 55.68C736.934 55.68 737.478 55.776 738.246 55.968C739.078 56.096 739.91 56.416 740.742 56.928C741.574 57.44 742.31 58.144 742.95 59.04C743.59 59.936 743.91 61.088 743.91 62.496C743.91 64.352 743.334 65.952 742.182 67.296C741.03 68.64 739.526 69.728 737.67 70.56C735.878 71.392 733.862 72 731.622 72.384C729.382 72.768 727.206 72.96 725.094 72.96ZM726.918 31.008C725.51 31.008 724.294 31.424 723.27 32.256C722.31 33.024 721.478 34.016 720.774 35.232C720.134 36.448 719.622 37.792 719.238 39.264C718.918 40.736 718.662 42.144 718.47 43.488C722.438 43.424 725.638 42.752 728.07 41.472C730.566 40.192 731.814 38.368 731.814 36C731.814 34.72 731.398 33.568 730.566 32.544C729.798 31.52 728.582 31.008 726.918 31.008ZM794.797 60.192C794.797 54.432 797.389 49.92 802.573 46.656C807.757 43.392 815.405 41.632 825.517 41.376C825.581 40.672 825.613 40.096 825.613 39.648C825.677 39.136 825.709 38.528 825.709 37.824C825.709 35.776 825.325 34.144 824.557 32.928C823.789 31.712 822.189 31.104 819.757 31.104C818.413 31.104 817.325 31.296 816.493 31.68C815.661 32.064 814.989 32.608 814.477 33.312C813.965 33.952 813.549 34.752 813.229 35.712C812.909 36.672 812.621 37.728 812.365 38.88C812.237 39.456 811.949 39.84 811.501 40.032C811.053 40.16 810.349 40.224 809.389 40.224C802.861 40.224 799.597 37.76 799.597 32.832C799.597 30.848 800.045 28.96 800.941 27.168C801.901 25.376 803.277 23.84 805.069 22.56C806.925 21.216 809.229 20.16 811.981 19.392C814.733 18.624 817.933 18.24 821.581 18.24C828.685 18.24 833.837 19.712 837.037 22.656C840.237 25.6 841.837 29.76 841.837 35.136C841.837 35.84 841.741 37.12 841.549 38.976C841.421 40.768 841.229 42.688 840.973 44.736C840.781 46.72 840.589 48.608 840.397 50.4C840.269 52.192 840.205 53.44 840.205 54.144C840.205 55.744 840.493 56.896 841.069 57.6C841.645 58.24 842.285 58.688 842.989 58.944C843.757 59.2 844.429 59.392 845.005 59.52C845.581 59.648 845.869 59.968 845.869 60.48C845.869 61.888 845.677 63.328 845.293 64.8C844.909 66.272 844.269 67.616 843.373 68.832C842.541 70.048 841.357 71.04 839.821 71.808C838.349 72.576 836.525 72.96 834.349 72.96C831.277 72.96 828.973 72.224 827.437 70.752C825.901 69.28 824.877 67.232 824.365 64.608C822.829 66.848 820.813 68.8 818.317 70.464C815.885 72.128 812.685 72.96 808.717 72.96C806.797 72.96 804.973 72.736 803.245 72.288C801.581 71.84 800.109 71.104 798.829 70.08C797.613 69.056 796.621 67.744 795.853 66.144C795.149 64.48 794.797 62.496 794.797 60.192ZM824.653 49.248C822.989 49.248 821.357 49.376 819.757 49.632C818.157 49.888 816.717 50.304 815.437 50.88C814.221 51.392 813.229 52.096 812.461 52.992C811.693 53.888 811.309 54.976 811.309 56.256C811.309 57.728 811.757 58.752 812.653 59.328C813.613 59.904 814.637 60.192 815.725 60.192C816.749 60.192 817.773 59.968 818.797 59.52C819.821 59.072 820.717 58.4 821.485 57.504C822.317 56.544 823.021 55.392 823.597 54.048C824.173 52.704 824.525 51.104 824.653 49.248ZM896.506 18.24C902.522 18.24 907.034 20.096 910.042 23.808C913.114 27.52 914.65 33.376 914.65 41.376C914.65 46.368 914.074 50.816 912.922 54.72C911.77 58.624 910.17 61.952 908.122 64.704C906.074 67.392 903.674 69.44 900.922 70.848C898.17 72.256 895.194 72.96 891.994 72.96C888.602 72.96 885.946 72.224 884.026 70.752C882.106 69.28 880.602 67.2 879.514 64.512C879.322 66.816 879.162 68.576 879.034 69.792C878.906 71.008 878.81 71.968 878.746 72.672C878.682 73.44 878.618 74.112 878.554 74.688C878.554 75.264 878.49 76.032 878.362 76.992C878.298 77.952 878.202 79.264 878.074 80.928C877.946 82.592 877.754 84.896 877.498 87.84C877.434 88.608 877.274 89.12 877.018 89.376C876.762 89.632 876.218 89.76 875.386 89.76H871.93C869.946 89.76 868.314 89.536 867.034 89.088C865.818 88.704 864.826 88.128 864.058 87.36C863.354 86.592 862.842 85.632 862.522 84.48C862.266 83.392 862.138 82.112 862.138 80.64C862.138 80 862.234 78.272 862.426 75.456C862.618 72.64 862.842 69.28 863.098 65.376C863.418 61.408 863.738 57.152 864.058 52.608C864.442 48.064 864.794 43.744 865.114 39.648C865.434 35.488 865.69 31.808 865.882 28.608C866.138 25.408 866.33 23.2 866.458 21.984C866.522 20.576 866.682 19.744 866.938 19.488C867.13 19.296 867.642 19.2 868.474 19.2H872.218C875.674 19.2 878.17 19.936 879.706 21.408C881.306 22.816 882.106 24.512 882.106 26.496C883.578 23.552 885.466 21.44 887.77 20.16C890.138 18.88 893.05 18.24 896.506 18.24ZM889.498 31.008C886.234 31.008 883.834 32.416 882.298 35.232C880.762 38.048 879.994 41.888 879.994 46.752C879.994 48.416 880.09 50.048 880.282 51.648C880.538 53.248 880.954 54.688 881.53 55.968C882.106 57.248 882.874 58.272 883.834 59.04C884.858 59.808 886.138 60.192 887.674 60.192C890.426 60.192 892.73 58.848 894.586 56.16C896.442 53.472 897.37 49.248 897.37 43.488C897.37 41.888 897.242 40.352 896.986 38.88C896.794 37.344 896.41 36 895.834 34.848C895.258 33.696 894.458 32.768 893.434 32.064C892.41 31.36 891.098 31.008 889.498 31.008ZM966.808 18.24C972.824 18.24 977.336 20.096 980.344 23.808C983.416 27.52 984.952 33.376 984.952 41.376C984.952 46.368 984.376 50.816 983.224 54.72C982.072 58.624 980.472 61.952 978.424 64.704C976.376 67.392 973.976 69.44 971.224 70.848C968.472 72.256 965.496 72.96 962.296 72.96C958.904 72.96 956.248 72.224 954.328 70.752C952.408 69.28 950.904 67.2 949.816 64.512C949.624 66.816 949.464 68.576 949.336 69.792C949.208 71.008 949.112 71.968 949.048 72.672C948.984 73.44 948.92 74.112 948.856 74.688C948.856 75.264 948.792 76.032 948.664 76.992C948.6 77.952 948.504 79.264 948.376 80.928C948.248 82.592 948.056 84.896 947.8 87.84C947.736 88.608 947.576 89.12 947.32 89.376C947.064 89.632 946.52 89.76 945.688 89.76H942.232C940.248 89.76 938.616 89.536 937.336 89.088C936.12 88.704 935.128 88.128 934.36 87.36C933.656 86.592 933.144 85.632 932.824 84.48C932.568 83.392 932.44 82.112 932.44 80.64C932.44 80 932.536 78.272 932.728 75.456C932.92 72.64 933.144 69.28 933.4 65.376C933.72 61.408 934.04 57.152 934.36 52.608C934.744 48.064 935.096 43.744 935.416 39.648C935.736 35.488 935.992 31.808 936.184 28.608C936.44 25.408 936.632 23.2 936.76 21.984C936.824 20.576 936.984 19.744 937.24 19.488C937.432 19.296 937.944 19.2 938.776 19.2H942.52C945.976 19.2 948.472 19.936 950.008 21.408C951.608 22.816 952.408 24.512 952.408 26.496C953.88 23.552 955.768 21.44 958.072 20.16C960.44 18.88 963.352 18.24 966.808 18.24ZM959.8 31.008C956.536 31.008 954.136 32.416 952.6 35.232C951.064 38.048 950.296 41.888 950.296 46.752C950.296 48.416 950.392 50.048 950.584 51.648C950.84 53.248 951.256 54.688 951.832 55.968C952.408 57.248 953.176 58.272 954.136 59.04C955.16 59.808 956.44 60.192 957.976 60.192C960.728 60.192 963.032 58.848 964.888 56.16C966.744 53.472 967.672 49.248 967.672 43.488C967.672 41.888 967.544 40.352 967.288 38.88C967.096 37.344 966.712 36 966.136 34.848C965.56 33.696 964.76 32.768 963.736 32.064C962.712 31.36 961.4 31.008 959.8 31.008ZM164.212 147.16C164.02 149.592 163.796 151.992 163.54 154.36C163.348 156.728 163.156 158.968 162.964 161.08C162.772 163.192 162.612 165.08 162.484 166.744C162.42 168.408 162.388 169.688 162.388 170.584C162.388 172.248 162.58 173.368 162.964 173.944C163.348 174.456 163.988 174.712 164.884 174.712C165.588 174.712 166.196 174.584 166.708 174.328C167.22 174.072 167.7 173.784 168.148 173.464C168.596 173.144 168.98 172.856 169.3 172.6C169.684 172.344 170.1 172.216 170.548 172.216C170.996 172.216 171.412 172.472 171.796 172.984C172.18 173.496 172.372 174.68 172.372 176.536C172.372 180.056 171.412 182.84 169.492 184.888C167.572 186.936 164.276 187.96 159.604 187.96C154.996 187.96 151.572 186.904 149.332 184.792C147.156 182.616 146.068 179.32 146.068 174.904C146.068 173.944 146.1 172.824 146.164 171.544C146.292 170.2 146.452 168.472 146.644 166.36C146.836 164.248 147.06 161.656 147.316 158.584C147.636 155.512 147.956 151.704 148.276 147.16H143.188C142.676 147.16 142.356 147.064 142.228 146.872C142.164 146.616 142.132 146.264 142.132 145.816L142.42 140.92C142.484 140.088 142.58 139.288 142.708 138.52C142.9 137.688 143.22 136.952 143.668 136.312C144.18 135.672 144.884 135.16 145.78 134.776C146.676 134.392 147.86 134.2 149.332 134.2C149.78 133.048 150.292 131.672 150.868 130.072C151.444 128.472 152.02 126.936 152.596 125.464C153.172 123.928 153.716 122.648 154.228 121.624C154.804 120.6 155.316 120.088 155.764 120.088H158.548C161.236 120.088 163.092 120.92 164.116 122.584C165.14 124.248 165.652 126.232 165.652 128.536C165.652 129.816 165.556 131.704 165.364 134.2H175.444C176.468 134.2 176.98 134.648 176.98 135.544L176.596 140.728C176.468 142.648 175.924 144.216 174.964 145.432C174.068 146.584 172.18 147.16 169.3 147.16H164.212ZM214.283 187.96C209.867 187.96 206.187 187.352 203.243 186.136C200.363 184.856 198.059 183.128 196.331 180.952C194.603 178.776 193.387 176.248 192.683 173.368C191.979 170.424 191.627 167.288 191.627 163.96C191.627 160.12 192.075 156.376 192.971 152.728C193.931 149.016 195.531 145.72 197.771 142.84C200.011 139.96 202.955 137.656 206.603 135.928C210.315 134.136 214.923 133.24 220.427 133.24C228.491 133.24 234.251 135.224 237.707 139.192C241.227 143.096 242.987 148.6 242.987 155.704C242.987 157.688 242.827 159.896 242.507 162.328C242.251 164.696 241.707 167.064 240.875 169.432C240.107 171.8 239.019 174.104 237.611 176.344C236.267 178.584 234.539 180.568 232.427 182.296C230.315 184.024 227.755 185.4 224.747 186.424C221.803 187.448 218.315 187.96 214.283 187.96ZM218.795 146.008C216.363 146.008 214.411 146.648 212.939 147.928C211.531 149.144 210.443 150.648 209.675 152.44C208.971 154.168 208.491 156.024 208.235 158.008C208.043 159.928 207.947 161.56 207.947 162.904C207.947 167.128 208.619 170.232 209.963 172.216C211.307 174.2 213.227 175.192 215.723 175.192C217.963 175.192 219.787 174.488 221.195 173.08C222.667 171.672 223.787 169.976 224.555 167.992C225.387 166.008 225.931 163.928 226.187 161.752C226.507 159.576 226.667 157.752 226.667 156.28C226.667 153.08 226.059 150.584 224.843 148.792C223.691 146.936 221.675 146.008 218.795 146.008ZM318.011 175.192C319.867 175.192 321.467 174.936 322.811 174.424C324.219 173.912 325.435 173.336 326.459 172.696C327.483 172.056 328.347 171.48 329.051 170.968C329.755 170.456 330.395 170.2 330.971 170.2C332.443 170.2 333.179 171.16 333.179 173.08C333.179 173.528 333.083 174.168 332.891 175C332.699 175.768 332.443 176.6 332.123 177.496C331.803 178.328 331.451 179.128 331.067 179.896C330.747 180.664 330.427 181.24 330.107 181.624C329.787 181.944 329.211 182.456 328.379 183.16C327.611 183.864 326.555 184.568 325.211 185.272C323.867 185.976 322.299 186.584 320.507 187.096C318.715 187.672 316.731 187.96 314.555 187.96C312.123 187.96 309.595 187.608 306.971 186.904C304.411 186.136 302.075 184.856 299.963 183.064C297.851 181.208 296.091 178.744 294.683 175.672C293.339 172.536 292.667 168.632 292.667 163.96C292.667 162.296 292.763 160.408 292.955 158.296C293.211 156.12 293.691 153.912 294.395 151.672C295.099 149.368 296.027 147.128 297.179 144.952C298.395 142.712 299.995 140.728 301.979 139C303.963 137.272 306.331 135.896 309.083 134.872C311.899 133.784 315.227 133.24 319.067 133.24C322.203 133.24 324.891 133.624 327.131 134.392C329.435 135.096 331.323 136.088 332.795 137.368C334.267 138.584 335.355 140.024 336.059 141.688C336.827 143.352 337.211 145.144 337.211 147.064C337.211 150.52 336.123 153.08 333.947 154.744C331.771 156.344 328.699 157.144 324.731 157.144C323.771 157.144 323.099 157.08 322.715 156.952C322.395 156.76 322.235 156.376 322.235 155.8C322.235 154.264 322.203 152.888 322.139 151.672C322.075 150.456 321.883 149.432 321.563 148.6C321.307 147.768 320.891 147.128 320.315 146.68C319.739 146.232 318.907 146.008 317.819 146.008C315.835 146.008 314.235 146.648 313.019 147.928C311.867 149.208 310.971 150.776 310.331 152.632C309.755 154.424 309.371 156.28 309.179 158.2C309.051 160.12 308.987 161.72 308.987 163C308.987 167.544 309.691 170.712 311.099 172.504C312.571 174.296 314.875 175.192 318.011 175.192ZM375.593 187.96C371.177 187.96 367.497 187.352 364.553 186.136C361.673 184.856 359.369 183.128 357.641 180.952C355.913 178.776 354.697 176.248 353.993 173.368C353.289 170.424 352.937 167.288 352.937 163.96C352.937 160.12 353.385 156.376 354.281 152.728C355.241 149.016 356.841 145.72 359.081 142.84C361.321 139.96 364.265 137.656 367.913 135.928C371.625 134.136 376.233 133.24 381.737 133.24C389.801 133.24 395.561 135.224 399.017 139.192C402.537 143.096 404.297 148.6 404.297 155.704C404.297 157.688 404.137 159.896 403.817 162.328C403.561 164.696 403.017 167.064 402.185 169.432C401.417 171.8 400.329 174.104 398.921 176.344C397.577 178.584 395.849 180.568 393.737 182.296C391.625 184.024 389.065 185.4 386.057 186.424C383.113 187.448 379.625 187.96 375.593 187.96ZM380.105 146.008C377.673 146.008 375.721 146.648 374.249 147.928C372.841 149.144 371.753 150.648 370.985 152.44C370.281 154.168 369.801 156.024 369.545 158.008C369.353 159.928 369.257 161.56 369.257 162.904C369.257 167.128 369.929 170.232 371.273 172.216C372.617 174.2 374.537 175.192 377.033 175.192C379.273 175.192 381.097 174.488 382.505 173.08C383.977 171.672 385.097 169.976 385.865 167.992C386.697 166.008 387.241 163.928 387.497 161.752C387.817 159.576 387.977 157.752 387.977 156.28C387.977 153.08 387.369 150.584 386.153 148.792C385.001 146.936 382.985 146.008 380.105 146.008ZM455.72 178.552C455.72 177.144 455.816 175.32 456.008 173.08C456.264 170.776 456.488 168.376 456.68 165.88C456.936 163.32 457.16 160.856 457.352 158.488C457.608 156.12 457.736 154.136 457.736 152.536C457.736 150.872 457.32 149.4 456.488 148.12C455.72 146.776 454.184 146.104 451.88 146.104C449.64 146.104 447.784 146.648 446.312 147.736C444.84 148.824 443.592 150.808 442.568 153.688C441.608 156.568 440.808 160.536 440.168 165.592C439.528 170.648 438.92 177.144 438.344 185.08C438.28 185.848 438.12 186.36 437.864 186.616C437.608 186.872 437.064 187 436.232 187H432.776C430.792 187 429.16 186.808 427.88 186.424C426.664 185.976 425.672 185.368 424.904 184.6C424.2 183.832 423.688 182.904 423.368 181.816C423.112 180.664 422.984 179.352 422.984 177.88C422.984 176.92 423.016 175.576 423.08 173.848C423.208 172.056 423.4 169.624 423.656 166.552C423.912 163.416 424.2 159.48 424.52 154.744C424.904 149.944 425.352 144.024 425.864 136.984C425.928 135.576 426.088 134.744 426.344 134.488C426.536 134.296 427.048 134.2 427.88 134.2H431.624C433.544 134.2 435.112 134.424 436.328 134.872C437.608 135.32 438.632 135.928 439.4 136.696C440.168 137.4 440.712 138.264 441.032 139.288C441.352 140.248 441.544 141.24 441.608 142.264C443.592 138.872 445.864 136.536 448.424 135.256C450.984 133.912 454.184 133.24 458.024 133.24C460.712 133.24 463.048 133.528 465.032 134.104C467.016 134.68 468.648 135.672 469.928 137.08C471.272 138.424 472.264 140.216 472.904 142.456C473.544 144.632 473.864 147.352 473.864 150.616C473.864 151.64 473.8 153.112 473.672 155.032C473.544 156.952 473.384 159.064 473.192 161.368C473 163.608 472.776 165.976 472.52 168.472C472.328 170.904 472.136 173.176 471.944 175.288C471.752 177.4 471.592 179.256 471.464 180.856C471.336 182.456 471.272 183.512 471.272 184.024C471.272 185.432 471.112 186.296 470.792 186.616C470.472 186.872 469.768 187 468.68 187H465.608C463.56 187 461.896 186.808 460.616 186.424C459.336 186.04 458.344 185.496 457.64 184.792C456.936 184.088 456.424 183.224 456.104 182.2C455.848 181.112 455.72 179.896 455.72 178.552ZM514.582 147.16C514.39 149.592 514.166 151.992 513.91 154.36C513.718 156.728 513.526 158.968 513.334 161.08C513.142 163.192 512.982 165.08 512.854 166.744C512.79 168.408 512.758 169.688 512.758 170.584C512.758 172.248 512.95 173.368 513.334 173.944C513.718 174.456 514.358 174.712 515.254 174.712C515.958 174.712 516.566 174.584 517.078 174.328C517.59 174.072 518.07 173.784 518.518 173.464C518.966 173.144 519.35 172.856 519.67 172.6C520.054 172.344 520.47 172.216 520.918 172.216C521.366 172.216 521.782 172.472 522.166 172.984C522.55 173.496 522.742 174.68 522.742 176.536C522.742 180.056 521.782 182.84 519.862 184.888C517.942 186.936 514.646 187.96 509.974 187.96C505.366 187.96 501.942 186.904 499.702 184.792C497.526 182.616 496.438 179.32 496.438 174.904C496.438 173.944 496.47 172.824 496.534 171.544C496.662 170.2 496.822 168.472 497.014 166.36C497.206 164.248 497.43 161.656 497.686 158.584C498.006 155.512 498.326 151.704 498.646 147.16H493.558C493.046 147.16 492.726 147.064 492.598 146.872C492.534 146.616 492.502 146.264 492.502 145.816L492.79 140.92C492.854 140.088 492.95 139.288 493.078 138.52C493.27 137.688 493.59 136.952 494.038 136.312C494.55 135.672 495.254 135.16 496.15 134.776C497.046 134.392 498.23 134.2 499.702 134.2C500.15 133.048 500.662 131.672 501.238 130.072C501.814 128.472 502.39 126.936 502.966 125.464C503.542 123.928 504.086 122.648 504.598 121.624C505.174 120.6 505.686 120.088 506.134 120.088H508.918C511.606 120.088 513.462 120.92 514.486 122.584C515.51 124.248 516.022 126.232 516.022 128.536C516.022 129.816 515.926 131.704 515.734 134.2H525.814C526.838 134.2 527.35 134.648 527.35 135.544L526.966 140.728C526.838 142.648 526.294 144.216 525.334 145.432C524.438 146.584 522.55 147.16 519.67 147.16H514.582ZM553.693 187C551.709 187 550.077 186.808 548.797 186.424C547.581 185.976 546.589 185.368 545.821 184.6C545.117 183.832 544.605 182.904 544.285 181.816C544.029 180.664 543.901 179.352 543.901 177.88C543.901 176.92 543.933 175.576 543.997 173.848C544.125 172.056 544.317 169.624 544.573 166.552C544.829 163.416 545.117 159.48 545.437 154.744C545.821 149.944 546.269 144.024 546.781 136.984C546.845 135.576 547.005 134.744 547.261 134.488C547.453 134.296 547.965 134.2 548.797 134.2H552.541C554.525 134.2 556.125 134.392 557.341 134.776C558.621 135.16 559.613 135.736 560.317 136.504C561.085 137.272 561.597 138.2 561.853 139.288C562.173 140.376 562.333 141.592 562.333 142.936C562.333 143.896 562.269 145.336 562.141 147.256C562.013 149.176 561.821 151.8 561.565 155.128C561.373 158.392 561.085 162.488 560.701 167.416C560.317 172.28 559.837 178.168 559.261 185.08C559.197 185.848 559.037 186.36 558.781 186.616C558.525 186.872 557.981 187 557.149 187H553.693ZM546.877 122.872C546.877 120.312 547.805 118.296 549.661 116.824C551.517 115.352 554.013 114.616 557.149 114.616C559.901 114.616 561.885 115.192 563.101 116.344C564.381 117.432 565.021 118.904 565.021 120.76C565.021 123.128 564.125 125.112 562.333 126.712C560.605 128.248 558.045 129.016 554.653 129.016C549.469 129.016 546.877 126.968 546.877 122.872ZM615.061 178.552C615.061 177.144 615.157 175.32 615.349 173.08C615.605 170.776 615.829 168.376 616.021 165.88C616.277 163.32 616.501 160.856 616.693 158.488C616.949 156.12 617.077 154.136 617.077 152.536C617.077 150.872 616.661 149.4 615.829 148.12C615.061 146.776 613.525 146.104 611.221 146.104C608.981 146.104 607.125 146.648 605.653 147.736C604.181 148.824 602.933 150.808 601.909 153.688C600.949 156.568 600.149 160.536 599.509 165.592C598.869 170.648 598.261 177.144 597.685 185.08C597.621 185.848 597.461 186.36 597.205 186.616C596.949 186.872 596.405 187 595.573 187H592.117C590.133 187 588.501 186.808 587.221 186.424C586.005 185.976 585.013 185.368 584.245 184.6C583.541 183.832 583.029 182.904 582.709 181.816C582.453 180.664 582.325 179.352 582.325 177.88C582.325 176.92 582.357 175.576 582.421 173.848C582.549 172.056 582.741 169.624 582.997 166.552C583.253 163.416 583.541 159.48 583.861 154.744C584.245 149.944 584.693 144.024 585.205 136.984C585.269 135.576 585.429 134.744 585.685 134.488C585.877 134.296 586.389 134.2 587.221 134.2H590.965C592.885 134.2 594.453 134.424 595.669 134.872C596.949 135.32 597.973 135.928 598.741 136.696C599.509 137.4 600.053 138.264 600.373 139.288C600.693 140.248 600.885 141.24 600.949 142.264C602.933 138.872 605.205 136.536 607.765 135.256C610.325 133.912 613.525 133.24 617.365 133.24C620.053 133.24 622.389 133.528 624.373 134.104C626.357 134.68 627.989 135.672 629.269 137.08C630.613 138.424 631.605 140.216 632.245 142.456C632.885 144.632 633.205 147.352 633.205 150.616C633.205 151.64 633.141 153.112 633.013 155.032C632.885 156.952 632.725 159.064 632.533 161.368C632.341 163.608 632.117 165.976 631.861 168.472C631.669 170.904 631.477 173.176 631.285 175.288C631.093 177.4 630.933 179.256 630.805 180.856C630.677 182.456 630.613 183.512 630.613 184.024C630.613 185.432 630.453 186.296 630.133 186.616C629.813 186.872 629.109 187 628.021 187H624.949C622.901 187 621.237 186.808 619.957 186.424C618.677 186.04 617.685 185.496 616.981 184.792C616.277 184.088 615.765 183.224 615.445 182.2C615.189 181.112 615.061 179.896 615.061 178.552ZM671.619 142.36C671.619 143.704 671.491 145.592 671.235 148.024C671.043 150.456 670.819 152.984 670.563 155.608C670.371 158.232 670.147 160.696 669.891 163C669.699 165.304 669.603 166.968 669.603 167.992C669.603 170.232 670.147 171.992 671.235 173.272C672.387 174.488 673.955 175.096 675.939 175.096C677.667 175.096 679.107 174.424 680.259 173.08C681.475 171.672 682.435 169.88 683.139 167.704C683.907 165.464 684.515 162.936 684.963 160.12C685.411 157.304 685.731 154.456 685.923 151.576C686.179 148.696 686.371 145.912 686.499 143.224C686.691 140.472 686.883 138.104 687.075 136.12C687.139 135.608 687.331 135.16 687.651 134.776C687.971 134.392 688.483 134.2 689.187 134.2H692.643C694.627 134.2 696.227 134.424 697.443 134.872C698.723 135.256 699.715 135.832 700.419 136.6C701.187 137.368 701.699 138.328 701.955 139.48C702.275 140.568 702.435 141.848 702.435 143.32C702.435 144.28 702.371 145.656 702.243 147.448C702.179 149.176 702.019 151.608 701.763 154.744C701.507 157.816 701.187 161.752 700.803 166.552C700.483 171.288 700.067 177.176 699.555 184.216C699.427 185.56 699.267 186.36 699.075 186.616C698.947 186.872 698.435 187 697.539 187H693.795C691.875 187 690.275 186.776 688.995 186.328C687.779 185.88 686.787 185.304 686.019 184.6C685.251 183.896 684.707 183.064 684.387 182.104C684.067 181.144 683.875 180.152 683.811 179.128C682.851 180.792 681.763 182.2 680.547 183.352C679.395 184.504 678.179 185.432 676.899 186.136C675.619 186.776 674.307 187.224 672.963 187.48C671.619 187.8 670.307 187.96 669.027 187.96C666.595 187.96 664.419 187.576 662.499 186.808C660.579 185.976 658.947 184.888 657.603 183.544C656.323 182.2 655.331 180.6 654.627 178.744C653.923 176.888 653.571 174.904 653.571 172.792C653.571 171.96 653.603 170.616 653.667 168.76C653.795 166.84 653.923 164.696 654.051 162.328C654.243 159.96 654.435 157.464 654.627 154.84C654.819 152.152 654.979 149.624 655.107 147.256C655.299 144.888 655.459 142.808 655.587 141.016C655.779 139.224 655.907 137.944 655.971 137.176C656.099 136.024 656.355 135.256 656.739 134.872C657.123 134.424 657.763 134.2 658.659 134.2H661.731C663.715 134.2 665.347 134.392 666.627 134.776C667.907 135.16 668.899 135.704 669.603 136.408C670.371 137.112 670.883 137.976 671.139 139C671.459 139.96 671.619 141.08 671.619 142.36ZM744.541 187.96C741.725 187.96 738.909 187.608 736.093 186.904C733.341 186.2 730.845 184.984 728.605 183.256C726.429 181.528 724.637 179.224 723.229 176.344C721.821 173.464 721.117 169.848 721.117 165.496C721.117 163.896 721.245 161.976 721.501 159.736C721.757 157.496 722.237 155.192 722.941 152.824C723.709 150.456 724.733 148.12 726.013 145.816C727.357 143.448 729.085 141.336 731.197 139.48C733.309 137.624 735.869 136.12 738.877 134.968C741.885 133.816 745.469 133.24 749.629 133.24C752.957 133.24 755.773 133.624 758.077 134.392C760.381 135.16 762.237 136.216 763.645 137.56C765.053 138.84 766.077 140.344 766.717 142.072C767.357 143.8 767.677 145.656 767.677 147.64C767.677 150.584 767.069 153.08 765.853 155.128C764.701 157.176 763.165 158.904 761.245 160.312C759.389 161.656 757.309 162.712 755.005 163.48C752.701 164.248 750.429 164.856 748.189 165.304C745.949 165.688 743.869 165.944 741.949 166.072C740.093 166.136 738.653 166.168 737.629 166.168C737.629 167.384 737.789 168.6 738.109 169.816C738.493 170.968 739.037 171.992 739.741 172.888C740.445 173.784 741.373 174.52 742.525 175.096C743.677 175.672 745.085 175.96 746.749 175.96C748.413 175.96 749.693 175.704 750.589 175.192C751.549 174.616 752.317 174.008 752.893 173.368C753.469 172.664 753.949 172.056 754.333 171.544C754.781 170.968 755.357 170.68 756.061 170.68C756.381 170.68 756.925 170.776 757.693 170.968C758.525 171.096 759.357 171.416 760.189 171.928C761.021 172.44 761.757 173.144 762.397 174.04C763.037 174.936 763.357 176.088 763.357 177.496C763.357 179.352 762.781 180.952 761.629 182.296C760.477 183.64 758.973 184.728 757.117 185.56C755.325 186.392 753.309 187 751.069 187.384C748.829 187.768 746.653 187.96 744.541 187.96ZM746.365 146.008C744.957 146.008 743.741 146.424 742.717 147.256C741.757 148.024 740.925 149.016 740.221 150.232C739.581 151.448 739.069 152.792 738.685 154.264C738.365 155.736 738.109 157.144 737.917 158.488C741.885 158.424 745.085 157.752 747.517 156.472C750.013 155.192 751.261 153.368 751.261 151C751.261 149.72 750.845 148.568 750.013 147.544C749.245 146.52 748.029 146.008 746.365 146.008ZM792.563 169.912C795.251 169.912 797.171 170.584 798.323 171.928C799.475 173.208 800.051 175.032 800.051 177.4C800.051 178.36 799.923 179.48 799.667 180.76C799.411 181.976 798.931 183.128 798.227 184.216C797.587 185.24 796.659 186.136 795.443 186.904C794.227 187.608 792.627 187.96 790.643 187.96C787.699 187.96 785.715 187.224 784.691 185.752C783.667 184.216 783.155 182.328 783.155 180.088C783.155 178.808 783.315 177.56 783.635 176.344C783.955 175.128 784.467 174.04 785.171 173.08C785.875 172.12 786.835 171.352 788.051 170.776C789.267 170.2 790.771 169.912 792.563 169.912ZM828.177 169.912C830.865 169.912 832.785 170.584 833.937 171.928C835.089 173.208 835.665 175.032 835.665 177.4C835.665 178.36 835.537 179.48 835.281 180.76C835.025 181.976 834.545 183.128 833.841 184.216C833.201 185.24 832.273 186.136 831.057 186.904C829.841 187.608 828.241 187.96 826.257 187.96C823.313 187.96 821.329 187.224 820.305 185.752C819.281 184.216 818.769 182.328 818.769 180.088C818.769 178.808 818.929 177.56 819.249 176.344C819.569 175.128 820.081 174.04 820.785 173.08C821.489 172.12 822.449 171.352 823.665 170.776C824.881 170.2 826.385 169.912 828.177 169.912ZM863.791 169.912C866.479 169.912 868.399 170.584 869.551 171.928C870.703 173.208 871.279 175.032 871.279 177.4C871.279 178.36 871.151 179.48 870.895 180.76C870.639 181.976 870.159 183.128 869.455 184.216C868.815 185.24 867.887 186.136 866.671 186.904C865.455 187.608 863.855 187.96 861.871 187.96C858.927 187.96 856.943 187.224 855.919 185.752C854.895 184.216 854.383 182.328 854.383 180.088C854.383 178.808 854.543 177.56 854.863 176.344C855.183 175.128 855.695 174.04 856.399 173.08C857.103 172.12 858.063 171.352 859.279 170.776C860.495 170.2 861.999 169.912 863.791 169.912Z" fill="white"/>
</svg>
